<svg width="194" height="34" viewBox="0 0 194 34" fill="none" xmlns="http://www.w3.org/2000/svg">
<path d="M50.3257 25.9292L48.9627 22.8047H42.1969L40.8339 25.9292H39L44.7 13.0591H46.5339L52.2339 25.9292H50.3257ZM42.8909 21.2176H48.2935L45.5675 14.9685L42.8909 21.2176Z" fill="#5F2264"/>
<path d="M76.5459 13.0591H78.3055V24.3421H83.9312V25.9292H76.5459V13.0591Z" fill="#5F2264"/>
<path d="M118.28 25.9292L116.917 22.8047H110.151L108.788 25.9292H106.954L112.654 13.0591H114.488L120.188 25.9292H118.28ZM110.845 21.2176H116.248L113.646 14.8941L110.845 21.2176Z" fill="#5F2264"/>
<path d="M153.67 13.0591H155.405V25.9292H153.62L146.26 15.9605V25.9292H144.5V13.0591H146.284L153.67 23.0527V13.0591Z" fill="#5F2264"/>
<path d="M191.067 25.9292L189.704 22.8047H183.037L181.699 25.9292H179.84L185.565 13.0591H187.399L193.099 25.9292H191.067ZM183.632 21.2176H189.035L186.309 14.9685L183.632 21.2176Z" fill="#5F2264"/>
<path d="M1.37724 16.1808C1.43369 12.2805 3.03259 8.55717 5.83127 5.80894C8.62994 3.06071 12.4057 1.50624 16.3493 1.47868C18.3301 1.47146 20.2924 1.85502 22.1216 2.60694C23.9507 3.35886 25.6099 4.46403 27.0021 5.85779C29.7742 8.61497 31.3676 12.3214 31.4521 16.2089V16.9519H26.3989C26.2427 16.9534 26.0883 16.9853 25.9446 17.0458C25.8009 17.1062 25.6706 17.1941 25.5612 17.3044C25.4518 17.4147 25.3655 17.5452 25.3071 17.6885C25.2487 17.8318 25.2194 17.9851 25.2209 18.1396V24.0553C25.2321 24.214 25.2102 24.3733 25.1565 24.5232C25.1028 24.6732 25.0185 24.8106 24.9088 24.9269C24.7991 25.0432 24.6664 25.136 24.5189 25.1994C24.3714 25.2628 24.2123 25.2956 24.0515 25.2956C23.8907 25.2956 23.7316 25.2628 23.5841 25.1994C23.4366 25.136 23.3039 25.0432 23.1942 24.9269C23.0845 24.8106 23.0002 24.6732 22.9465 24.5232C22.8928 24.3733 22.8709 24.214 22.8821 24.0553V12.2351C22.8933 12.0764 22.8713 11.9171 22.8176 11.7672C22.7639 11.6172 22.6796 11.4799 22.5699 11.3635C22.4602 11.2472 22.3275 11.1544 22.18 11.091C22.0326 11.0276 21.8735 10.9948 21.7127 10.9948C21.5518 10.9948 21.3927 11.0276 21.2453 11.091C21.0978 11.1544 20.965 11.2472 20.8553 11.3635C20.7457 11.4799 20.6614 11.6172 20.6077 11.7672C20.554 11.9171 20.532 12.0764 20.5432 12.2351V27.6127C20.5544 27.7713 20.5325 27.9306 20.4788 28.0805C20.4251 28.2305 20.3408 28.3679 20.2311 28.4842C20.1214 28.6006 19.9887 28.6933 19.8412 28.7567C19.6937 28.8202 19.5346 28.8529 19.3738 28.8529C19.213 28.8529 19.0539 28.8202 18.9064 28.7567C18.7589 28.6933 18.6262 28.6006 18.5165 28.4842C18.4068 28.3679 18.3225 28.2305 18.2688 28.0805C18.2151 27.9306 18.1932 27.7713 18.2044 27.6127L18.1418 6.36437C18.153 6.20569 18.131 6.04642 18.0773 5.89648C18.0236 5.74653 17.9394 5.60912 17.8297 5.49279C17.72 5.37646 17.5872 5.2837 17.4398 5.22027C17.2923 5.15685 17.1332 5.12413 16.9724 5.12413C16.8115 5.12413 16.6524 5.15685 16.505 5.22027C16.3575 5.2837 16.2248 5.37646 16.1151 5.49279C16.0054 5.60912 15.9211 5.74653 15.8674 5.89648C15.8137 6.04642 15.7917 6.20569 15.8029 6.36437V21.6856C15.8029 21.9917 15.68 22.2852 15.4613 22.5016C15.2425 22.718 14.9458 22.8395 14.6364 22.8395C14.327 22.8395 14.0302 22.718 13.8115 22.5016C13.5927 22.2852 13.4698 21.9917 13.4698 21.6856V12.2351C13.481 12.0764 13.4591 11.9171 13.4054 11.7672C13.3517 11.6172 13.2673 11.4799 13.1577 11.3635C13.048 11.2472 12.9153 11.1544 12.7678 11.091C12.6203 11.0276 12.4612 10.9948 12.3004 10.9948C12.1396 10.9948 11.9804 11.0276 11.8329 11.091C11.6855 11.1544 11.5528 11.2472 11.4431 11.3635C11.3334 11.4799 11.2491 11.6172 11.1954 11.7672C11.1417 11.9171 11.1197 12.0764 11.1309 12.2351V19.3385C11.1421 19.4972 11.1202 19.6564 11.0665 19.8064C11.0128 19.9563 10.9285 20.0937 10.8188 20.2101C10.7091 20.3264 10.5764 20.4192 10.4289 20.4826C10.2815 20.546 10.1223 20.5787 9.96151 20.5787C9.80069 20.5787 9.6416 20.546 9.49411 20.4826C9.34663 20.4192 9.21393 20.3264 9.10424 20.2101C8.99455 20.0937 8.91022 19.9563 8.85652 19.8064C8.80283 19.6564 8.7809 19.4972 8.79209 19.3385V14.5823C8.79209 14.2762 8.6692 13.9827 8.45043 13.7663C8.23165 13.5499 7.93492 13.4284 7.62553 13.4284C7.31613 13.4284 7.0194 13.5499 6.80062 13.7663C6.58185 13.9827 6.45896 14.2762 6.45896 14.5823V15.7474C6.46047 16.0584 6.33738 16.3574 6.11663 16.5789C5.89588 16.8004 5.59544 16.9264 5.28099 16.9294H1.41708C1.41708 16.845 1.41708 16.7605 1.41708 16.6817V16.648C1.41708 16.4904 1.41708 16.3328 1.41708 16.1808H1.37724ZM32.9203 16.5185C32.9203 16.4059 32.9203 16.2934 32.9203 16.1752C32.8311 11.9185 31.0888 7.85917 28.0549 4.839C26.5328 3.30938 24.7164 2.09693 22.7127 1.27325C20.7091 0.44958 18.5589 0.0313819 16.3891 0.0433522C12.0712 0.0724026 7.93674 1.77425 4.87281 4.78378C1.80889 7.79331 0.0595437 11.8708 8.46554e-05 16.1414C8.46554e-05 16.3103 8.46554e-05 16.4847 8.46554e-05 16.6592H0.711412L8.46554e-05 16.693C-0.0105768 19.9985 0.986022 23.2305 2.85988 25.9675C4.73373 28.7046 7.39789 30.8196 10.505 32.0368C12.346 32.7302 14.2996 33.0851 16.2696 33.0837H16.3436L33 33.0106L32.9203 16.5185Z" fill="#5F2264"/>
</svg>
