<svg xmlns="http://www.w3.org/2000/svg" viewBox="0 0 60 60"><defs><style>.cls-1{fill:#7a2d7d;}.cls-2{fill:#fff;}.cls-2,.cls-3,.cls-4{fill-rule:evenodd;}.cls-3,.cls-4{fill:none;stroke:#fff;stroke-linecap:round;stroke-linejoin:round;}.cls-3{stroke-width:2.1px;}.cls-4{stroke-width:1.8px;}</style></defs><g id="Layer_3" data-name="Layer 3"><circle class="cls-1" cx="30" cy="30" r="30"/><path class="cls-2" d="M37.56,32.22h2.25a.82.82,0,0,0,.81-.81V25.87a.82.82,0,0,0-.81-.81H37.56Z"/><path class="cls-2" d="M34.28,34.35l2.53-1.9V24.8l-2.53-1.91a.79.79,0,0,0-1.27.64V33.72a.79.79,0,0,0,1.27.63Z"/><path class="cls-3" d="M16.87,33.92l-5.58,2.87V21.61a4.86,4.86,0,0,1,4.86-4.86H43"/><path class="cls-3" d="M16.33,40.92h23.2A11.84,11.84,0,0,1,45,42.24l3,1.55v-20"/><path class="cls-4" d="M29.91,32.64a5.69,5.69,0,0,1-1.75-4.28,5.58,5.58,0,0,1,1.75-3.69"/><path class="cls-4" d="M27.06,34.62a8.8,8.8,0,0,1-2.3-5.21,9.06,9.06,0,0,1,2.4-6.69"/><path class="cls-4" d="M24.19,35.84a10,10,0,0,1-.05-14.3"/></g></svg>