<svg xmlns="http://www.w3.org/2000/svg" viewBox="0 0 60 60"><defs><style>.cls-1{fill:#35bfe7;}.cls-2{fill:#fff;}.cls-3{fill:none;stroke:#fff;stroke-miterlimit:10;stroke-width:2.1px;}</style></defs><g id="Layer_3" data-name="Layer 3"><circle class="cls-1" cx="30" cy="30" r="30"/><path class="cls-2" d="M31.9,34.77V45.94H28.1V34.77A10,10,0,0,1,30,28.88,10,10,0,0,1,31.9,34.77Z"/><path class="cls-3" d="M30.18,28.88a9,9,0,0,0-1.9,5.54V44.9H14.87a.85.85,0,0,1-.85-.85V34.42a9,9,0,0,1,16.16-5.54Z"/><path class="cls-3" d="M46.28,34.59v9.46a.85.85,0,0,1-.85.85H32V34.42a9,9,0,0,0-1.89-5.54,9,9,0,0,1,7.14-3.49A9.14,9.14,0,0,1,46.28,34.59Z"/><circle class="cls-3" cx="22.1" cy="16.88" r="4.55"/><circle class="cls-3" cx="38.2" cy="16.88" r="4.55"/></g></svg>