<svg xmlns="http://www.w3.org/2000/svg" viewBox="0 0 60 60"><defs><style>.cls-1{fill:#7a2d7d;}.cls-2,.cls-4{fill:none;stroke:#fff;stroke-linecap:round;stroke-linejoin:round;}.cls-2{stroke-width:1.8px;}.cls-3{fill:#5cbd2c;}.cls-4{stroke-width:2.1px;}</style></defs><g id="Layer_3" data-name="Layer 3"><circle class="cls-1" cx="30" cy="30" r="30"/><line class="cls-2" x1="23.96" y1="15.03" x2="23.96" y2="10"/><line class="cls-2" x1="30.09" y1="15.03" x2="30.09" y2="10"/><line class="cls-2" x1="36.05" y1="15.03" x2="36.05" y2="10"/><line class="cls-2" x1="44.96" y1="23.96" x2="50" y2="23.96"/><line class="cls-2" x1="44.96" y1="30.09" x2="50" y2="30.09"/><line class="cls-2" x1="44.96" y1="36.05" x2="50" y2="36.05"/><line class="cls-2" x1="36.05" y1="44.97" x2="36.05" y2="50"/><line class="cls-2" x1="29.92" y1="44.97" x2="29.92" y2="50"/><line class="cls-2" x1="23.96" y1="44.97" x2="23.96" y2="50"/><line class="cls-2" x1="10" y1="23.96" x2="15.04" y2="23.96"/><line class="cls-2" x1="10" y1="30.09" x2="15.04" y2="30.09"/><line class="cls-2" x1="10" y1="36.05" x2="15.04" y2="36.05"/><circle class="cls-3" cx="30" cy="30" r="30"/><rect class="cls-4" x="18.62" y="18.62" width="22.77" height="22.77" rx="3.41"/><line class="cls-4" x1="23.96" y1="18.03" x2="23.96" y2="13"/><line class="cls-4" x1="30.09" y1="18.03" x2="30.09" y2="13"/><line class="cls-4" x1="36.05" y1="18.03" x2="36.05" y2="13"/><line class="cls-4" x1="41.96" y1="23.96" x2="47" y2="23.96"/><line class="cls-4" x1="41.96" y1="30.09" x2="47" y2="30.09"/><line class="cls-4" x1="41.96" y1="36.05" x2="47" y2="36.05"/><line class="cls-4" x1="36.05" y1="41.97" x2="36.05" y2="47"/><line class="cls-4" x1="29.92" y1="41.97" x2="29.92" y2="47"/><line class="cls-4" x1="23.96" y1="41.97" x2="23.96" y2="47"/><line class="cls-4" x1="13" y1="23.96" x2="18.04" y2="23.96"/><line class="cls-4" x1="13" y1="30.09" x2="18.04" y2="30.09"/><line class="cls-4" x1="13" y1="36.05" x2="18.04" y2="36.05"/></g></svg>